# xmcd
#
# Track frame offsets: 
#        150
#        10415
#        21178
#        35937
#        50069
#        63843
#        76395
#        88482
#        101239
#        113073
#        126189
#        137594
#        151576
#        164727
#        176980
#        191179
#        202892
#        214860
#        229281
#        242272
#        253573
#        265740
#
# Disc length: 3692 seconds
#
# Revision: 0
# Processed by: cddbd v1.5.2PL0 Copyright (c) Steve Scherf et al.
# Submitted via: ExactAudioCopyFreeDBPlugin 1.0
#
DISCID=3f0e6a16
DTITLE=Granville "Stick" McGhee - Complete Issued Recordings Vol. 1 (1
DTITLE=946-1951)
DYEAR=2012
DGENRE=Blues
TTITLE0=Drinkin' Wine Spo-Dee-O-Dee
TTITLE1=Baby, Baby
TTITLE2=Drinkin' Wine Spo-Dee-O-Dee
TTITLE3=Tall Pretty Woman (Blues)
TTITLE4=Lonesome Road Blues
TTITLE5=Blues Mixture (I'd Rather Drink Muddy Water)
TTITLE6=I'll Always Remember
TTITLE7=Blue and Brokenhearted
TTITLE8=My Baby's Comin' Back
TTITLE9=Drank Up All the Wine Last Night
TTITLE10=Venus Blues
TTITLE11=Southern Menu
TTITLE12=Let's Do It
TTITLE13=She's Gone Rock Away Blues
TTITLE14=House Warmin' Boogie
TTITLE15=Blue Barrelhouse
TTITLE16=One Monkey Don't Stop the Show
TTITLE17=Tennessee Waltz Blues (Or Boogie)
TTITLE18=You Gotta Have Something on the Ball
TTITLE19=Oh What a Face
TTITLE20=Wee Wee Hours Pt. 1
TTITLE21=Wee Wee Hours Pt. 2
EXTD=
EXTT0=
EXTT1=
EXTT2=
EXTT3=
EXTT4=
EXTT5=
EXTT6=
EXTT7=
EXTT8=
EXTT9=
EXTT10=
EXTT11=
EXTT12=
EXTT13=
EXTT14=
EXTT15=
EXTT16=
EXTT17=
EXTT18=
EXTT19=
EXTT20=
EXTT21=
PLAYORDER=
